<?xml version="1.0" encoding="utf-8"?>
<!-- Generator: Adobe Illustrator 18.1.1, SVG Export Plug-In . SVG Version: 6.00 Build 0)  -->
<svg version="1.1" id="Шар_1" xmlns="http://www.w3.org/2000/svg" xmlns:xlink="http://www.w3.org/1999/xlink" x="0px" y="0px"
	 viewBox="0 0 100 100" enable-background="new 0 0 100 100" xml:space="preserve">
<path fill="#2764AE" d="M89.8,100H10.2C4.6,100,0,95.4,0,89.8V10.2C0,4.6,4.6,0,10.2,0h79.5C95.4,0,100,4.6,100,10.2v79.5
	C100,95.4,95.4,100,89.8,100z"/>
<g>
	<path fill="#FFFFFF" d="M25.8,81.6V18.4h20.5c7.8,0,12.8,0.3,15.2,0.9c3.6,0.9,6.7,3,9.1,6.2c2.4,3.2,3.7,7.3,3.7,12.3
		c0,3.9-0.7,7.2-2.1,9.8c-1.4,2.6-3.2,4.7-5.4,6.2c-2.2,1.5-4.4,2.5-6.6,3c-3.1,0.6-7.5,0.9-13.2,0.9h-8.3v23.9H25.8z M38.5,29.1v18
		h7c5,0,8.4-0.3,10.1-1c1.7-0.7,3-1.7,4-3.1c1-1.4,1.4-3,1.4-4.9c0-2.3-0.7-4.2-2-5.7c-1.4-1.5-3.1-2.4-5.1-2.8
		c-1.5-0.3-4.6-0.4-9.2-0.4H38.5z"/>
</g>
</svg>
